<svg width="150" height="43" viewBox="0 0 150 43" fill="none" xmlns="http://www.w3.org/2000/svg">
<path d="M14.6875 43C11.875 43 9.4375 42.4688 7.375 41.4062C5.3125 40.3229 3.70833 38.875 2.5625 37.0625C1.4375 35.25 0.875 33.2604 0.875 31.0938V12.0938C0.875 9.90625 1.4375 7.91667 2.5625 6.125C3.70833 4.3125 5.3125 2.875 7.375 1.8125C9.4375 0.729167 11.875 0.1875 14.6875 0.1875H24.3125C27.125 0.1875 29.5625 0.729167 31.625 1.8125C33.7083 2.875 35.3125 4.3125 36.4375 6.125C37.5625 7.91667 38.125 9.90625 38.125 12.0938V31.0938C38.125 33.2604 37.5625 35.25 36.4375 37.0625C35.3125 38.875 33.7083 40.3229 31.625 41.4062C29.5625 42.4688 27.125 43 24.3125 43H14.6875ZM17.3125 28.8438H25.125L28.2812 28.4688L30.3125 26.5L30.75 23.8125V15.5938H21.6875V18.9375H27.4375V23.3438C27.3333 23.6771 27.2604 23.9896 27.2188 24.2812C27.1771 24.5729 27.1042 24.8854 27 25.2188L24.9375 25.5312H17.375L15.4688 25.2188L15.0312 23.2188V8.4375L15.3438 6.71875L17.375 6.25H25.5L28.7188 6.78125L29.3438 3.4375L25.7188 3H17.3125L14.125 3.5L12.125 5.5L11.6875 8.125V23.8125L12.125 26.5L14.1875 28.4688L17.3125 28.8438ZM51.6875 43C48.875 43 46.4375 42.4688 44.375 41.4062C42.3125 40.3229 40.7083 38.875 39.5625 37.0625C38.4375 35.25 37.875 33.2604 37.875 31.0938V12.0938C37.875 9.90625 38.4375 7.91667 39.5625 6.125C40.7083 4.3125 42.3125 2.875 44.375 1.8125C46.4375 0.729167 48.875 0.1875 51.6875 0.1875H61.3125C64.125 0.1875 66.5625 0.729167 68.625 1.8125C70.7083 2.875 72.3125 4.3125 73.4375 6.125C74.5625 7.91667 75.125 9.90625 75.125 12.0938V31.0938C75.125 33.2604 74.5625 35.25 73.4375 37.0625C72.3125 38.875 70.7083 40.3229 68.625 41.4062C66.5625 42.4688 64.125 43 61.3125 43H51.6875ZM52.7812 28.8438H59.625L62.0625 28.4688L65.1562 28.8125V5.375L63.0312 3.375L59.9062 3H52.7812L49.125 3.4375L49.9062 6.84375L52.8438 6.25H59.8125L61.6875 6.65625L62.125 8.3125V15.5938L59.9062 15.2188H52.7812L49.6562 15.6875L47.6562 17.6562L47.2188 20.2188V23.875L47.6562 26.5L49.6562 28.4688L52.7812 28.8438ZM52.9688 25.5312L51 25.2188L50.5625 23.3438V20.6562L50.8125 18.875L52.9688 18.5625H59.75L62.125 18.8125V25.2188L59.6875 25.5312H52.9688ZM88.6875 43C85.875 43 83.4375 42.4688 81.375 41.4062C79.3125 40.3229 77.7083 38.875 76.5625 37.0625C75.4375 35.25 74.875 33.2604 74.875 31.0938V12.0938C74.875 9.90625 75.4375 7.91667 76.5625 6.125C77.7083 4.3125 79.3125 2.875 81.375 1.8125C83.4375 0.729167 85.875 0.1875 88.6875 0.1875H98.3125C101.125 0.1875 103.562 0.729167 105.625 1.8125C107.708 2.875 109.312 4.3125 110.438 6.125C111.562 7.91667 112.125 9.90625 112.125 12.0938V31.0938C112.125 33.2604 111.562 35.25 110.438 37.0625C109.312 38.875 107.708 40.3229 105.625 41.4062C103.562 42.4688 101.125 43 98.3125 43H88.6875ZM84.5938 28.8438H97.7188L100.938 28.4688L102.906 26.5L103.344 23.875V18.9375L102.75 16.625L100.25 15.5312L102.75 14.5938L103.344 12.2188V8.0625L102.906 5.4375L100.938 3.4375L97.7188 3H84.5938V28.8438ZM87.9375 14V6.3125H97.5312L99.7188 6.65625L99.5938 8.5L100.031 11.9688L99.5938 13.625L97.5312 14H87.9375ZM87.9375 25.5312V17.2812H97.5938L99.7188 17.5312L100.031 19.375V23.5312L99.5938 25.2188L97.5312 25.5312H87.9375ZM125.688 43C122.875 43 120.438 42.4688 118.375 41.4062C116.312 40.3229 114.708 38.875 113.562 37.0625C112.438 35.25 111.875 33.2604 111.875 31.0938V12.0938C111.875 9.90625 112.438 7.91667 113.562 6.125C114.708 4.3125 116.312 2.875 118.375 1.8125C120.438 0.729167 122.875 0.1875 125.688 0.1875H135.312C138.125 0.1875 140.562 0.729167 142.625 1.8125C144.708 2.875 146.312 4.3125 147.438 6.125C148.562 7.91667 149.125 9.90625 149.125 12.0938V31.0938C149.125 33.2604 148.562 35.25 147.438 37.0625C146.312 38.875 144.708 40.3229 142.625 41.4062C140.562 42.4688 138.125 43 135.312 43H125.688ZM130.25 28.8438H133.562V21.625L141.5 3H137.594L131.906 17.0312L126.344 3H122.438L130.25 21.5625V28.8438Z" fill="#FFF2E7"/>
</svg>
