<svg width="248" height="241" viewBox="0 0 248 241" fill="none" xmlns="http://www.w3.org/2000/svg">
<ellipse cx="124" cy="120.5" rx="124" ry="120.5" fill="#FFFAF7"/>
<path d="M123.5 18L126.755 26.2918H137.29L128.767 31.4164L132.023 39.7082L123.5 34.5836L114.977 39.7082L118.233 31.4164L109.71 26.2918H120.245L123.5 18Z" fill="#A7B307"/>
<path d="M55.5 42L58.7555 50.2918H69.2903L60.7674 55.4164L64.0229 63.7082L55.5 58.5836L46.9771 63.7082L50.2326 55.4164L41.7097 50.2918H52.2445L55.5 42Z" fill="#A7B307"/>
<path d="M43.5 176L46.7555 184.292H57.2903L48.7674 189.416L52.0229 197.708L43.5 192.584L34.9771 197.708L38.2326 189.416L29.7097 184.292H40.2445L43.5 176Z" fill="#A7B307"/>
<path d="M198.5 178L201.755 186.292H212.29L203.767 191.416L207.023 199.708L198.5 194.584L189.977 199.708L193.233 191.416L184.71 186.292H195.245L198.5 178Z" fill="#A7B307"/>
<path d="M200.5 49L203.755 57.2918H214.29L205.767 62.4164L209.023 70.7082L200.5 65.5836L191.977 70.7082L195.233 62.4164L186.71 57.2918H197.245L200.5 49Z" fill="#A7B307"/>
<path d="M120.5 208L123.755 216.292H134.29L125.767 221.416L129.023 229.708L120.5 224.584L111.977 229.708L115.233 221.416L106.71 216.292H117.245L120.5 208Z" fill="#A7B307"/>
<path d="M224.5 114L227.755 122.292H238.29L229.767 127.416L233.023 135.708L224.5 130.584L215.977 135.708L219.233 127.416L210.71 122.292H221.245L224.5 114Z" fill="#A7B307"/>
<path d="M24.5 109L27.7555 117.292H38.2903L29.7674 122.416L33.0229 130.708L24.5 125.584L15.9771 130.708L19.2326 122.416L10.7097 117.292H21.2445L24.5 109Z" fill="#A7B307"/>
<path d="M62.6875 142C59.875 142 57.4375 141.469 55.375 140.406C53.3125 139.323 51.7083 137.875 50.5625 136.062C49.4375 134.25 48.875 132.26 48.875 130.094V111.094C48.875 108.906 49.4375 106.917 50.5625 105.125C51.7083 103.312 53.3125 101.875 55.375 100.812C57.4375 99.7292 59.875 99.1875 62.6875 99.1875H72.3125C75.125 99.1875 77.5625 99.7292 79.625 100.812C81.7083 101.875 83.3125 103.312 84.4375 105.125C85.5625 106.917 86.125 108.906 86.125 111.094V130.094C86.125 132.26 85.5625 134.25 84.4375 136.062C83.3125 137.875 81.7083 139.323 79.625 140.406C77.5625 141.469 75.125 142 72.3125 142H62.6875ZM65.3125 127.844H73.125L76.2812 127.469L78.3125 125.5L78.75 122.812V114.594H69.6875V117.938H75.4375V122.344C75.3333 122.677 75.2604 122.99 75.2188 123.281C75.1771 123.573 75.1042 123.885 75 124.219L72.9375 124.531H65.375L63.4688 124.219L63.0312 122.219V107.438L63.3438 105.719L65.375 105.25H73.5L76.7188 105.781L77.3438 102.438L73.7188 102H65.3125L62.125 102.5L60.125 104.5L59.6875 107.125V122.812L60.125 125.5L62.1875 127.469L65.3125 127.844ZM99.6875 142C96.875 142 94.4375 141.469 92.375 140.406C90.3125 139.323 88.7083 137.875 87.5625 136.062C86.4375 134.25 85.875 132.26 85.875 130.094V111.094C85.875 108.906 86.4375 106.917 87.5625 105.125C88.7083 103.312 90.3125 101.875 92.375 100.812C94.4375 99.7292 96.875 99.1875 99.6875 99.1875H109.312C112.125 99.1875 114.562 99.7292 116.625 100.812C118.708 101.875 120.312 103.312 121.438 105.125C122.562 106.917 123.125 108.906 123.125 111.094V130.094C123.125 132.26 122.562 134.25 121.438 136.062C120.312 137.875 118.708 139.323 116.625 140.406C114.562 141.469 112.125 142 109.312 142H99.6875ZM100.781 127.844H107.625L110.062 127.469L113.156 127.812V104.375L111.031 102.375L107.906 102H100.781L97.125 102.438L97.9062 105.844L100.844 105.25H107.812L109.688 105.656L110.125 107.312V114.594L107.906 114.219H100.781L97.6562 114.688L95.6562 116.656L95.2188 119.219V122.875L95.6562 125.5L97.6562 127.469L100.781 127.844ZM100.969 124.531L99 124.219L98.5625 122.344V119.656L98.8125 117.875L100.969 117.562H107.75L110.125 117.812V124.219L107.688 124.531H100.969ZM136.688 142C133.875 142 131.438 141.469 129.375 140.406C127.312 139.323 125.708 137.875 124.562 136.062C123.438 134.25 122.875 132.26 122.875 130.094V111.094C122.875 108.906 123.438 106.917 124.562 105.125C125.708 103.312 127.312 101.875 129.375 100.812C131.438 99.7292 133.875 99.1875 136.688 99.1875H146.312C149.125 99.1875 151.562 99.7292 153.625 100.812C155.708 101.875 157.312 103.312 158.438 105.125C159.562 106.917 160.125 108.906 160.125 111.094V130.094C160.125 132.26 159.562 134.25 158.438 136.062C157.312 137.875 155.708 139.323 153.625 140.406C151.562 141.469 149.125 142 146.312 142H136.688ZM132.594 127.844H145.719L148.938 127.469L150.906 125.5L151.344 122.875V117.938L150.75 115.625L148.25 114.531L150.75 113.594L151.344 111.219V107.062L150.906 104.438L148.938 102.438L145.719 102H132.594V127.844ZM135.938 113V105.312H145.531L147.719 105.656L147.594 107.5L148.031 110.969L147.594 112.625L145.531 113H135.938ZM135.938 124.531V116.281H145.594L147.719 116.531L148.031 118.375V122.531L147.594 124.219L145.531 124.531H135.938ZM173.688 142C170.875 142 168.438 141.469 166.375 140.406C164.312 139.323 162.708 137.875 161.562 136.062C160.438 134.25 159.875 132.26 159.875 130.094V111.094C159.875 108.906 160.438 106.917 161.562 105.125C162.708 103.312 164.312 101.875 166.375 100.812C168.438 99.7292 170.875 99.1875 173.688 99.1875H183.312C186.125 99.1875 188.562 99.7292 190.625 100.812C192.708 101.875 194.312 103.312 195.438 105.125C196.562 106.917 197.125 108.906 197.125 111.094V130.094C197.125 132.26 196.562 134.25 195.438 136.062C194.312 137.875 192.708 139.323 190.625 140.406C188.562 141.469 186.125 142 183.312 142H173.688ZM178.25 127.844H181.562V120.625L189.5 102H185.594L179.906 116.031L174.344 102H170.438L178.25 120.562V127.844Z" fill="#7D00AE"/>
</svg>
